<?xml version="1.0" standalone="no"?>
<!DOCTYPE svg PUBLIC "-//W3C//DTD SVG 20010904//EN"
 "http://www.w3.org/TR/2001/REC-SVG-20010904/DTD/svg10.dtd">
<svg version="1.0" xmlns="http://www.w3.org/2000/svg"
 width="192.000000pt" height="192.000000pt" viewBox="0 0 192.000000 192.000000"
 preserveAspectRatio="xMidYMid meet">

<g transform="translate(0.000000,192.000000) scale(0.100000,-0.100000)"
fill="#e6e6e6" stroke="none">
<path d="M270 1910 c0 -9 -257 -1441 -264 -1473 -4 -16 11 -17 203 -17 l207 0
135 750 135 750 -208 0 c-125 0 -208 -4 -208 -10z"/>
<path d="M890 1914 c0 -3 -76 -428 -170 -945 -93 -517 -170 -946 -170 -954 0
-13 30 -15 204 -15 l204 0 6 32 c175 969 336 1865 336 1875 0 10 -41 13 -205
13 -113 0 -205 -3 -205 -6z"/>
<path d="M1372 1183 c-73 -406 -132 -744 -132 -750 0 -10 48 -13 205 -13 113
0 205 3 205 7 0 7 258 1447 264 1476 4 16 -11 17 -203 17 l-206 0 -133 -737z"/>
</g>
</svg>
